<svg width="224" height="41" viewBox="0 0 224 41" fill="none" xmlns="http://www.w3.org/2000/svg">
<path fill-rule="evenodd" clip-rule="evenodd" d="M36.6849 10.2368L18.9543 0L1.45903 10.1009L5.96898 11.923L18.9533 4.42651L32.8503 12.45V22.7823L36.6849 24.3316V10.2368ZM36.4955 30.8198L31.984 28.997L18.9533 36.5203L5.05634 28.4968V19.0022L1.22363 17.4537V30.7104L18.9543 40.9472L36.4955 30.8198Z" fill="url(#paint0_radial_110_740)"/>
<path fill-rule="evenodd" clip-rule="evenodd" d="M18.9513 9.40625L28.5354 14.9397V21.0393L25.1806 19.6839V16.8764L18.9509 13.2797L12.7212 16.8764V24.0698L18.9509 27.6665L22.9604 25.3517L26.9075 26.9464L18.9513 31.5399L9.36719 26.0065V14.9397L18.9513 9.40625Z" fill="url(#paint1_radial_110_740)"/>
<path d="M1.45703 10.0938L11.1016 14.0039L10.3073 17.8643L1.24508 14.1075L1.45703 10.0938Z" fill="url(#paint2_radial_110_740)"/>
<path d="M57.6069 31.0661C56.1867 31.0661 54.8679 30.8171 53.6506 30.3191C52.4332 29.8026 51.3634 29.0925 50.4412 28.1887C49.5374 27.2665 48.8365 26.1967 48.3385 24.9793C47.8589 23.762 47.6191 22.4524 47.6191 21.0506C47.6191 19.6488 47.8589 18.3392 48.3385 17.1219C48.8365 15.9046 49.5374 14.844 50.4412 13.9402C51.3634 13.0364 52.424 12.3263 53.6229 11.8098C54.8402 11.2934 56.1682 11.0352 57.6069 11.0352C59.1563 11.0352 60.5212 11.2934 61.7017 11.8098C62.8821 12.3078 63.9242 12.9995 64.828 13.8849L62.2827 16.4302C61.7478 15.84 61.093 15.3789 60.3183 15.0469C59.5436 14.7149 58.6398 14.5489 57.6069 14.5489C56.7031 14.5489 55.8731 14.7056 55.1169 15.0192C54.3791 15.3143 53.7336 15.757 53.1802 16.3472C52.6269 16.919 52.2026 17.6107 51.9075 18.4222C51.6124 19.2154 51.4649 20.0915 51.4649 21.0506C51.4649 22.0282 51.6124 22.9135 51.9075 23.7067C52.2026 24.4998 52.6269 25.1914 53.1802 25.7817C53.7336 26.3535 54.3791 26.7961 55.1169 27.1097C55.8731 27.4233 56.7031 27.58 57.6069 27.58C58.6952 27.58 59.6266 27.414 60.4013 27.082C61.1944 26.75 61.8584 26.2797 62.3933 25.671L64.9387 28.2164C64.0349 29.1202 62.9836 29.8211 61.7847 30.3191C60.5857 30.8171 59.1932 31.0661 57.6069 31.0661Z" fill="#1A1A1A"/>
<path d="M73.9264 31.0661C72.5799 31.0661 71.3626 30.7617 70.2743 30.1531C69.2045 29.5259 68.3468 28.6867 67.7013 27.6354C67.0742 26.5656 66.7606 25.3759 66.7606 24.0663C66.7606 22.7567 67.0742 21.5855 67.7013 20.5526C68.3284 19.5013 69.1861 18.6713 70.2743 18.0626C71.3626 17.4355 72.5707 17.1219 73.8987 17.1219C75.2636 17.1219 76.481 17.4355 77.5507 18.0626C78.639 18.6713 79.4967 19.5013 80.1238 20.5526C80.7509 21.5855 81.0645 22.7567 81.0645 24.0663C81.0645 25.3759 80.7509 26.5656 80.1238 27.6354C79.4967 28.6867 78.639 29.5259 77.5507 30.1531C76.481 30.7617 75.2728 31.0661 73.9264 31.0661ZM73.8987 27.6907C74.5811 27.6907 75.1806 27.5431 75.6971 27.248C76.2319 26.9345 76.6377 26.5102 76.9144 25.9753C77.2095 25.422 77.3571 24.7949 77.3571 24.094C77.3571 23.3931 77.2095 22.7752 76.9144 22.2403C76.6193 21.7054 76.2135 21.2904 75.6971 20.9953C75.1806 20.6817 74.5811 20.5249 73.8987 20.5249C73.2347 20.5249 72.6445 20.6817 72.128 20.9953C71.6116 21.2904 71.2058 21.7054 70.9107 22.2403C70.6155 22.7752 70.468 23.3931 70.468 24.094C70.468 24.7949 70.6155 25.422 70.9107 25.9753C71.2058 26.5102 71.6116 26.9345 72.128 27.248C72.6445 27.5431 73.2347 27.6907 73.8987 27.6907Z" fill="#1A1A1A"/>
<path d="M93.2196 30.7894V23.1256C93.2196 22.3325 92.9706 21.687 92.4726 21.189C91.9745 20.6909 91.329 20.4419 90.5359 20.4419C90.0194 20.4419 89.5583 20.5526 89.1525 20.7739C88.7467 20.9953 88.4239 21.3088 88.1842 21.7146C87.9628 22.1204 87.8522 22.5907 87.8522 23.1256L86.4411 22.4063C86.4411 21.355 86.6625 20.4419 87.1052 19.6673C87.5663 18.8741 88.1934 18.2562 88.9865 17.8136C89.7981 17.3709 90.7111 17.1496 91.7255 17.1496C92.7031 17.1496 93.5792 17.3986 94.3539 17.8966C95.1286 18.3761 95.7373 19.0125 96.1799 19.8056C96.6226 20.5803 96.8439 21.4195 96.8439 22.3233V30.7894H93.2196ZM84.2278 30.7894V17.4262H87.8522V30.7894H84.2278Z" fill="#1A1A1A"/>
<path d="M102.396 30.7894V11.8652H106.02V30.7894H102.396ZM99.2693 20.6079V17.4262H109.146V20.6079H99.2693Z" fill="#1A1A1A"/>
<path d="M118.082 31.0661C116.68 31.0661 115.435 30.771 114.347 30.1807C113.258 29.5721 112.391 28.742 111.746 27.6907C111.119 26.6394 110.805 25.4404 110.805 24.094C110.805 22.766 111.11 21.5855 111.718 20.5526C112.345 19.5013 113.194 18.6713 114.264 18.0626C115.333 17.4355 116.523 17.1219 117.833 17.1219C119.124 17.1219 120.258 17.417 121.236 18.0072C122.232 18.579 123.006 19.3722 123.56 20.3866C124.131 21.3826 124.417 22.517 124.417 23.7897C124.417 24.0294 124.399 24.2784 124.362 24.5367C124.344 24.7764 124.297 25.0531 124.224 25.3667L112.991 25.3943V22.683L122.536 22.6553L121.07 23.7897C121.033 22.9965 120.885 22.3325 120.627 21.7976C120.387 21.2627 120.028 20.8569 119.548 20.5803C119.087 20.2852 118.515 20.1376 117.833 20.1376C117.113 20.1376 116.486 20.3036 115.951 20.6356C115.416 20.9492 115.001 21.4011 114.706 21.9913C114.43 22.5631 114.291 23.2455 114.291 24.0387C114.291 24.8502 114.439 25.5603 114.734 26.169C115.047 26.7592 115.49 27.2204 116.062 27.5524C116.634 27.8659 117.298 28.0227 118.054 28.0227C118.736 28.0227 119.354 27.912 119.908 27.6907C120.461 27.4509 120.941 27.1005 121.346 26.6394L123.477 28.7697C122.831 29.5259 122.038 30.0977 121.097 30.4851C120.175 30.8724 119.17 31.0661 118.082 31.0661Z" fill="#1A1A1A"/>
<path d="M135.493 30.7894L131.979 25.3667L131.232 24.8133L126.031 17.4262H130.319L133.556 22.3233L134.248 22.849L139.754 30.7894H135.493ZM125.754 30.7894L131.205 23.1533L133.28 25.6157L129.849 30.7894H125.754ZM134.386 24.7857L132.256 22.351L135.438 17.4262H139.505L134.386 24.7857Z" fill="#1A1A1A"/>
<path d="M143.982 30.7894V11.8652H147.606V30.7894H143.982ZM140.855 20.6079V17.4262H150.732V20.6079H140.855Z" fill="#1A1A1A"/>
<path d="M154.265 30.7894V11.5885H156.865V30.7894H154.265ZM156.035 22.351V19.9716H166.051V22.351H156.035ZM156.035 13.9679V11.5885H166.521V13.9679H156.035Z" fill="#1A1A1A"/>
<path d="M175.786 31.0661C174.495 31.0661 173.333 30.7617 172.3 30.1531C171.267 29.5444 170.446 28.7236 169.838 27.6907C169.229 26.6394 168.925 25.4681 168.925 24.177C168.925 22.9043 169.229 21.7607 169.838 20.7463C170.446 19.7134 171.267 18.8926 172.3 18.2839C173.333 17.6752 174.495 17.3709 175.786 17.3709C177.059 17.3709 178.212 17.6752 179.245 18.2839C180.296 18.8741 181.126 19.6857 181.735 20.7186C182.343 21.7515 182.648 22.9043 182.648 24.177C182.648 25.4681 182.343 26.6394 181.735 27.6907C181.126 28.7236 180.296 29.5444 179.245 30.1531C178.212 30.7617 177.059 31.0661 175.786 31.0661ZM175.786 28.659C176.616 28.659 177.354 28.4654 178 28.078C178.645 27.6907 179.152 27.165 179.521 26.501C179.89 25.8186 180.075 25.0439 180.075 24.177C180.075 23.3285 179.881 22.5723 179.494 21.9083C179.125 21.2443 178.617 20.7278 177.972 20.3589C177.345 19.9716 176.616 19.7779 175.786 19.7779C174.956 19.7779 174.218 19.9716 173.573 20.3589C172.927 20.7278 172.42 21.2443 172.051 21.9083C171.682 22.5723 171.498 23.3285 171.498 24.177C171.498 25.0439 171.682 25.8186 172.051 26.501C172.42 27.165 172.927 27.6907 173.573 28.078C174.218 28.4654 174.956 28.659 175.786 28.659Z" fill="#1A1A1A"/>
<path d="M186.283 30.7894V17.6476H188.773V30.7894H186.283ZM188.773 23.2916L187.833 22.8766C187.833 21.1982 188.22 19.8609 188.995 18.8649C189.769 17.8689 190.885 17.3709 192.342 17.3709C193.006 17.3709 193.606 17.4908 194.141 17.7306C194.676 17.9519 195.174 18.33 195.635 18.8649L194.002 20.5526C193.726 20.2575 193.421 20.0454 193.089 19.9163C192.757 19.7872 192.37 19.7226 191.927 19.7226C191.005 19.7226 190.249 20.0177 189.659 20.6079C189.068 21.1982 188.773 22.0927 188.773 23.2916Z" fill="#1A1A1A"/>
<path d="M203.789 31.0661C202.498 31.0661 201.327 30.7617 200.276 30.1531C199.243 29.5444 198.422 28.7236 197.813 27.6907C197.223 26.6394 196.928 25.4773 196.928 24.2047C196.928 22.9135 197.223 21.7515 197.813 20.7186C198.422 19.6857 199.243 18.8741 200.276 18.2839C201.327 17.6752 202.498 17.3709 203.789 17.3709C204.804 17.3709 205.744 17.5646 206.611 17.9519C207.478 18.3208 208.225 18.8649 208.852 19.5843L207.192 21.2443C206.787 20.7647 206.289 20.4051 205.698 20.1653C205.127 19.907 204.49 19.7779 203.789 19.7779C202.959 19.7779 202.221 19.9716 201.576 20.3589C200.93 20.7278 200.423 21.2443 200.054 21.9083C199.685 22.5723 199.501 23.3378 199.501 24.2047C199.501 25.0716 199.685 25.837 200.054 26.501C200.423 27.165 200.93 27.6907 201.576 28.078C202.221 28.4654 202.959 28.659 203.789 28.659C204.49 28.659 205.127 28.5392 205.698 28.2994C206.289 28.0411 206.796 27.6723 207.22 27.1927L208.852 28.8527C208.244 29.5536 207.497 30.0977 206.611 30.4851C205.744 30.8724 204.804 31.0661 203.789 31.0661Z" fill="#1A1A1A"/>
<path d="M217.968 31.0661C216.659 31.0661 215.478 30.771 214.427 30.1807C213.376 29.5721 212.546 28.7513 211.937 27.7184C211.328 26.6855 211.024 25.5142 211.024 24.2047C211.024 22.9135 211.319 21.7515 211.909 20.7186C212.518 19.6857 213.33 18.8741 214.344 18.2839C215.377 17.6752 216.53 17.3709 217.802 17.3709C219.02 17.3709 220.09 17.6476 221.012 18.2009C221.952 18.7543 222.681 19.5197 223.197 20.4973C223.732 21.4748 224 22.5815 224 23.8173C224 24.0018 223.991 24.2047 223.972 24.426C223.954 24.6289 223.917 24.8687 223.861 25.1453H212.767V23.0703H222.533L221.62 23.8727C221.62 22.9873 221.464 22.2403 221.15 21.6316C220.837 21.0045 220.394 20.5249 219.822 20.1929C219.25 19.8425 218.559 19.6673 217.747 19.6673C216.899 19.6673 216.152 19.8517 215.506 20.2206C214.86 20.5895 214.362 21.106 214.012 21.77C213.662 22.434 213.486 23.2179 213.486 24.1217C213.486 25.0439 213.671 25.8555 214.04 26.5564C214.409 27.2388 214.934 27.7737 215.617 28.161C216.299 28.5299 217.083 28.7144 217.968 28.7144C218.706 28.7144 219.379 28.5853 219.988 28.327C220.615 28.0688 221.15 27.6815 221.593 27.165L223.197 28.7974C222.57 29.5352 221.796 30.0977 220.873 30.4851C219.97 30.8724 219.001 31.0661 217.968 31.0661Z" fill="#1A1A1A"/>
<defs>
<radialGradient id="paint0_radial_110_740" cx="0" cy="0" r="1" gradientUnits="userSpaceOnUse" gradientTransform="translate(18.4748 13.2802) rotate(89.0072) scale(27.6712 23.9644)">
<stop stop-color="#F17D29"/>
<stop offset="1" stop-color="#F9530C"/>
</radialGradient>
<radialGradient id="paint1_radial_110_740" cx="0" cy="0" r="1" gradientUnits="userSpaceOnUse" gradientTransform="translate(18.6921 16.5847) rotate(89.0072) scale(14.9574 12.9537)">
<stop stop-color="#F17D29"/>
<stop offset="1" stop-color="#F9530C"/>
</radialGradient>
<radialGradient id="paint2_radial_110_740" cx="0" cy="0" r="1" gradientUnits="userSpaceOnUse" gradientTransform="translate(5.99876 13.2892) rotate(108.726) scale(2.63223 7.50146)">
<stop stop-color="#F17D29"/>
<stop offset="1" stop-color="#F9530C"/>
</radialGradient>
</defs>
</svg>
